<svg width="256" height="75" viewBox="0 0 256 75" fill="none" xmlns="http://www.w3.org/2000/svg">
<path d="M37.0883 71.4176C56.5337 71.4176 72.2972 55.6541 72.2972 36.2087C72.2972 16.7634 56.5337 0.999817 37.0883 0.999817C17.643 0.999817 1.87939 16.7634 1.87939 36.2087C1.87939 55.6541 17.643 71.4176 37.0883 71.4176Z" fill="#D9D9D9" fill-opacity="0.1" stroke="#1714A6" stroke-width="2"/>
<path d="M8.96619 55.6799L37.7487 3.04218L66.5312 55.6799H8.96619Z" stroke="#9C1010"/>
<path d="M5.89041 21.9518L37.158 70.9509L68.4255 21.9518H5.89041Z" stroke="black"/>
<path d="M35.7376 13.8978V10.5198H37.0156C37.1476 10.5198 37.2896 10.5298 37.4416 10.5498C37.5936 10.5658 37.7356 10.6038 37.8676 10.6638C37.9996 10.7198 38.1076 10.8078 38.1916 10.9278C38.2756 11.0478 38.3176 11.2098 38.3176 11.4138C38.3176 11.5418 38.2916 11.6618 38.2396 11.7738C38.1916 11.8818 38.1016 11.9698 37.9696 12.0378C37.8376 12.1058 37.6496 12.1438 37.4056 12.1518V12.1758C37.6896 12.1798 37.9076 12.2198 38.0596 12.2958C38.2156 12.3718 38.3236 12.4718 38.3836 12.5958C38.4436 12.7158 38.4736 12.8498 38.4736 12.9978C38.4736 13.2098 38.4276 13.3758 38.3356 13.4958C38.2436 13.6158 38.1256 13.7058 37.9816 13.7658C37.8376 13.8218 37.6836 13.8578 37.5196 13.8738C37.3596 13.8898 37.2076 13.8978 37.0636 13.8978H35.7376ZM36.2296 11.9598H36.9556C37.1196 11.9598 37.2656 11.9518 37.3936 11.9358C37.5256 11.9158 37.6296 11.8698 37.7056 11.7978C37.7816 11.7258 37.8196 11.6138 37.8196 11.4618C37.8196 11.2978 37.7796 11.1798 37.6996 11.1078C37.6196 11.0318 37.5136 10.9838 37.3816 10.9638C37.2496 10.9438 37.1096 10.9338 36.9616 10.9338H36.2296V11.9598ZM36.2296 13.4898H37.0216C37.1936 13.4898 37.3496 13.4798 37.4896 13.4598C37.6296 13.4358 37.7416 13.3858 37.8256 13.3098C37.9136 13.2298 37.9576 13.1058 37.9576 12.9378C37.9576 12.7658 37.9116 12.6378 37.8196 12.5538C37.7316 12.4698 37.6116 12.4158 37.4596 12.3918C37.3116 12.3638 37.1496 12.3498 36.9736 12.3498H36.2296V13.4898Z" fill="black"/>
<path d="M6.10996 38.6699V35.2919H7.38796C7.51996 35.2919 7.66196 35.3019 7.81396 35.3219C7.96596 35.3379 8.10796 35.3759 8.23996 35.4359C8.37196 35.4919 8.47996 35.5799 8.56396 35.6999C8.64796 35.8199 8.68996 35.9819 8.68996 36.1859C8.68996 36.3139 8.66396 36.4339 8.61196 36.5459C8.56396 36.6539 8.47396 36.7419 8.34196 36.8099C8.20996 36.8779 8.02196 36.9159 7.77796 36.9239V36.9479C8.06196 36.9519 8.27996 36.9919 8.43196 37.0679C8.58796 37.1439 8.69596 37.2439 8.75596 37.3679C8.81596 37.4879 8.84596 37.6219 8.84596 37.7699C8.84596 37.9819 8.79996 38.1479 8.70796 38.2679C8.61596 38.3879 8.49796 38.4779 8.35396 38.5379C8.20996 38.5939 8.05596 38.6299 7.89196 38.6459C7.73196 38.6619 7.57996 38.6699 7.43596 38.6699H6.10996ZM6.60196 36.7319H7.32796C7.49196 36.7319 7.63796 36.7239 7.76596 36.7079C7.89796 36.6879 8.00196 36.6419 8.07796 36.5699C8.15396 36.4979 8.19196 36.3859 8.19196 36.2339C8.19196 36.0699 8.15196 35.9519 8.07196 35.8799C7.99196 35.8039 7.88596 35.7559 7.75396 35.7359C7.62196 35.7159 7.48196 35.7059 7.33396 35.7059H6.60196V36.7319ZM6.60196 38.2619H7.39396C7.56596 38.2619 7.72196 38.2519 7.86196 38.2319C8.00196 38.2079 8.11396 38.1579 8.19796 38.0819C8.28596 38.0019 8.32996 37.8779 8.32996 37.7099C8.32996 37.5379 8.28396 37.4099 8.19196 37.3259C8.10396 37.2419 7.98396 37.1879 7.83196 37.1639C7.68396 37.1359 7.52196 37.1219 7.34596 37.1219H6.60196V38.2619Z" fill="black"/>
<path d="M34.6177 38.6699V35.2919H35.1157V36.9659L36.7537 35.2919H37.4017V35.3579L36.0157 36.6839L37.4737 38.6039V38.6699H36.8977L35.6497 37.0259L35.1157 37.5419V38.6699H34.6177ZM38.5082 38.6699H38.0162V35.2919H40.3862V35.7239H38.5082V36.6779H39.9662V37.0919H38.5082V38.6699Z" fill="black"/>
<path d="M33.3778 59.9029V56.5249H34.2418L35.1898 59.6809H35.2018L36.1318 56.5249H36.9958V59.9029H36.4858L36.5158 56.7589H36.5038L35.5558 59.9029H34.8178L33.8758 56.7589H33.8638L33.8878 59.9029H33.3778ZM37.7323 59.9029V56.5249H38.2303V59.4709H40.0003V59.9029H37.7323Z" fill="black"/>
<path d="M61.6881 38.6699V35.2919H62.5521L63.5001 38.4479H63.5121L64.4421 35.2919H65.3061V38.6699H64.7961L64.8261 35.5259H64.8141L63.8661 38.6699H63.1281L62.1861 35.5259H62.1741L62.1981 38.6699H61.6881ZM66.0426 38.6699V35.2919H66.5406V38.2379H68.3106V38.6699H66.0426Z" fill="black"/>
<path d="M82.8688 57.9998V44.4878H87.9808C88.5088 44.4878 89.0768 44.5278 89.6848 44.6078C90.2928 44.6718 90.8608 44.8238 91.3888 45.0638C91.9168 45.2878 92.3488 45.6398 92.6848 46.1198C93.0208 46.5998 93.1888 47.2478 93.1888 48.0638C93.1888 48.5758 93.0848 49.0558 92.8768 49.5038C92.6848 49.9358 92.3248 50.2878 91.7968 50.5598C91.2688 50.8318 90.5168 50.9838 89.5408 51.0158V51.1118C90.6768 51.1278 91.5488 51.2878 92.1568 51.5918C92.7808 51.8958 93.2128 52.2958 93.4528 52.7918C93.6928 53.2718 93.8128 53.8078 93.8128 54.3998C93.8128 55.2478 93.6288 55.9118 93.2608 56.3918C92.8928 56.8718 92.4208 57.2318 91.8448 57.4718C91.2688 57.6958 90.6528 57.8398 89.9968 57.9038C89.3568 57.9678 88.7488 57.9998 88.1728 57.9998H82.8688ZM84.8368 50.2478H87.7408C88.3968 50.2478 88.9808 50.2158 89.4928 50.1518C90.0208 50.0718 90.4368 49.8878 90.7408 49.5998C91.0448 49.3118 91.1968 48.8638 91.1968 48.2558C91.1968 47.5998 91.0368 47.1278 90.7168 46.8398C90.3968 46.5358 89.9728 46.3438 89.4448 46.2638C88.9168 46.1838 88.3568 46.1438 87.7648 46.1438H84.8368V50.2478ZM84.8368 56.3678H88.0048C88.6928 56.3678 89.3168 56.3278 89.8768 56.2478C90.4368 56.1518 90.8848 55.9518 91.2208 55.6478C91.5728 55.3278 91.7488 54.8318 91.7488 54.1598C91.7488 53.4718 91.5648 52.9598 91.1968 52.6238C90.8448 52.2878 90.3648 52.0718 89.7568 51.9758C89.1648 51.8638 88.5168 51.8078 87.8128 51.8078H84.8368V56.3678ZM96.9767 47.1038C96.5447 47.1198 96.2567 47.0158 96.1127 46.7918C95.9687 46.5678 95.8967 46.2878 95.8967 45.9518C95.8967 45.6638 95.9687 45.4078 96.1127 45.1838C96.2567 44.9598 96.5447 44.8478 96.9767 44.8478C97.3927 44.8478 97.6727 44.9598 97.8167 45.1838C97.9767 45.4078 98.0567 45.6638 98.0567 45.9518C98.0567 46.2878 97.9767 46.5678 97.8167 46.7918C97.6727 46.9998 97.3927 47.1038 96.9767 47.1038ZM95.9687 57.9998V48.1838H97.9607V57.9998H95.9687ZM104.714 58.2398C103.082 58.2398 101.866 57.7678 101.066 56.8238C100.266 55.8798 99.8659 54.6798 99.8659 53.2238C99.8499 51.7518 100.25 50.5438 101.066 49.5998C101.882 48.6558 103.098 48.1758 104.714 48.1598C106.282 48.1598 107.474 48.6238 108.29 49.5518C109.106 50.4798 109.514 51.7038 109.514 53.2238C109.514 54.1678 109.338 55.0238 108.986 55.7918C108.65 56.5438 108.122 57.1438 107.402 57.5918C106.698 58.0238 105.802 58.2398 104.714 58.2398ZM104.714 56.5358C105.482 56.5358 106.066 56.3678 106.466 56.0318C106.882 55.6958 107.17 55.2718 107.33 54.7598C107.49 54.2318 107.57 53.6958 107.57 53.1518C107.57 52.6078 107.49 52.0798 107.33 51.5678C107.17 51.0398 106.882 50.6078 106.466 50.2718C106.066 49.9198 105.482 49.7438 104.714 49.7438C103.93 49.7438 103.33 49.9198 102.914 50.2718C102.498 50.6078 102.21 51.0398 102.05 51.5678C101.89 52.0798 101.81 52.6078 101.81 53.1518C101.81 53.6958 101.89 54.2318 102.05 54.7598C102.21 55.2718 102.498 55.6958 102.914 56.0318C103.33 56.3678 103.93 56.5358 104.714 56.5358ZM113.518 57.9998H111.502V44.4878H113.518V53.1758L118.27 48.1358H120.766L116.59 52.3358L120.838 57.9998H118.438L115.198 53.7758L113.518 55.4558V57.9998ZM125.289 58.2158C124.377 58.2158 123.641 58.0078 123.081 57.5918C122.521 57.1598 122.105 56.5678 121.833 55.8158C121.577 55.0478 121.449 54.1758 121.449 53.1998C121.449 51.7118 121.753 50.4958 122.361 49.5518C122.969 48.5918 123.945 48.1118 125.289 48.1118C126.009 48.1118 126.593 48.2398 127.041 48.4958C127.489 48.7518 127.833 49.0398 128.073 49.3598C128.329 49.6798 128.505 49.9598 128.601 50.1998H128.649V48.1838H130.689V57.9998H128.985L128.649 56.2478H128.601C128.505 56.4878 128.329 56.7678 128.073 57.0878C127.817 57.3918 127.465 57.6558 127.017 57.8798C126.569 58.1038 125.993 58.2158 125.289 58.2158ZM126.081 56.5118C127.025 56.5118 127.681 56.2078 128.049 55.5998C128.433 54.9918 128.625 54.1998 128.625 53.2238C128.625 52.1998 128.425 51.3918 128.025 50.7998C127.641 50.2078 126.993 49.9118 126.081 49.9118C125.409 49.9118 124.881 50.0638 124.497 50.3678C124.113 50.6558 123.833 51.0478 123.657 51.5438C123.497 52.0398 123.417 52.5918 123.417 53.1998C123.417 54.1438 123.617 54.9358 124.017 55.5758C124.417 56.1998 125.105 56.5118 126.081 56.5118ZM132.619 57.9998V48.1838H134.467L134.635 50.8478C134.731 50.4158 134.915 49.9998 135.187 49.5998C135.475 49.1838 135.867 48.8478 136.363 48.5918C136.875 48.3198 137.523 48.1838 138.307 48.1838H138.715V50.3918H138.283C137.307 50.3918 136.555 50.5198 136.027 50.7758C135.499 51.0158 135.131 51.3758 134.923 51.8558C134.715 52.3198 134.611 52.8958 134.611 53.5838V57.9998H132.619ZM141.027 58.0478V49.6238H139.587V48.1838H141.027V46.2878C141.027 45.5838 141.179 45.0558 141.483 44.7038C141.803 44.3518 142.307 44.1758 142.995 44.1758H145.731V45.7598H143.019V48.1838H145.611V49.6238H143.019V58.0478H141.027ZM146.986 57.9998V48.1838H148.834L149.002 50.8478C149.098 50.4158 149.282 49.9998 149.554 49.5998C149.842 49.1838 150.234 48.8478 150.73 48.5918C151.242 48.3198 151.89 48.1838 152.674 48.1838H153.082V50.3918H152.65C151.674 50.3918 150.922 50.5198 150.394 50.7758C149.866 51.0158 149.498 51.3758 149.29 51.8558C149.082 52.3198 148.978 52.8958 148.978 53.5838V57.9998H146.986ZM158.901 58.2398C157.797 58.2398 156.893 57.9998 156.189 57.5198C155.485 57.0238 154.965 56.3918 154.629 55.6238C154.293 54.8558 154.125 54.0478 154.125 53.1998C154.109 52.2558 154.285 51.3998 154.653 50.6318C155.037 49.8638 155.581 49.2558 156.285 48.8078C157.005 48.3598 157.861 48.1358 158.853 48.1358C159.701 48.1358 160.461 48.3278 161.133 48.7118C161.821 49.0798 162.365 49.6078 162.765 50.2958C163.165 50.9678 163.381 51.7678 163.413 52.6958C163.413 52.7438 163.413 52.8398 163.413 52.9838C163.429 53.1118 163.437 53.2238 163.437 53.3198H156.021C156.021 54.3438 156.269 55.1438 156.765 55.7198C157.277 56.2798 157.981 56.5598 158.877 56.5598C159.549 56.5598 160.117 56.3918 160.581 56.0558C161.061 55.7038 161.357 55.2398 161.469 54.6638H163.413C163.269 55.6878 162.805 56.5438 162.021 57.2318C161.237 57.9038 160.197 58.2398 158.901 58.2398ZM156.093 52.3358H161.421C161.405 52.1598 161.357 51.9278 161.277 51.6398C161.197 51.3518 161.061 51.0718 160.869 50.7998C160.693 50.5118 160.437 50.2718 160.101 50.0798C159.765 49.8878 159.333 49.7918 158.805 49.7918C158.149 49.7918 157.629 49.9358 157.245 50.2238C156.877 50.4958 156.597 50.8318 156.405 51.2318C156.229 51.6158 156.125 51.9838 156.093 52.3358ZM169.678 58.2398C168.238 58.2398 167.182 57.7758 166.51 56.8478C165.838 55.9038 165.502 54.7038 165.502 53.2478C165.502 51.7438 165.838 50.5278 166.51 49.5998C167.198 48.6558 168.254 48.1838 169.678 48.1838C170.318 48.1838 170.854 48.2878 171.286 48.4958C171.718 48.7038 172.062 48.9518 172.318 49.2398C172.59 49.5278 172.782 49.7918 172.894 50.0318C173.022 50.2718 173.094 50.4238 173.11 50.4878H173.158L173.182 44.4878H175.222V57.9998H173.494L173.182 56.0318H173.134C173.102 56.0958 173.014 56.2478 172.87 56.4878C172.742 56.7118 172.542 56.9598 172.27 57.2318C172.014 57.5038 171.67 57.7438 171.238 57.9518C170.806 58.1438 170.286 58.2398 169.678 58.2398ZM170.254 56.5118C171.182 56.5118 171.894 56.2158 172.39 55.6238C172.886 55.0158 173.134 54.2158 173.134 53.2238C173.134 52.2638 172.894 51.4878 172.414 50.8958C171.95 50.2878 171.262 49.9838 170.35 49.9838C169.646 49.9838 169.078 50.1438 168.646 50.4638C168.23 50.7678 167.926 51.1678 167.734 51.6638C167.558 52.1598 167.47 52.6798 167.47 53.2238C167.47 53.7838 167.55 54.3198 167.71 54.8318C167.886 55.3278 168.174 55.7358 168.574 56.0558C168.99 56.3598 169.55 56.5118 170.254 56.5118Z" fill="#1714A6"/>
<path d="M183.205 57.9998V44.4878H186.661L190.453 57.1118H190.501L194.221 44.4878H197.677V57.9998H195.637L195.757 45.4238H195.709L191.917 57.9998H188.965L185.197 45.4238H185.149L185.245 57.9998H183.205ZM204.487 58.2398C203.383 58.2398 202.479 57.9998 201.775 57.5198C201.071 57.0238 200.551 56.3918 200.215 55.6238C199.879 54.8558 199.711 54.0478 199.711 53.1998C199.695 52.2558 199.871 51.3998 200.239 50.6318C200.623 49.8638 201.167 49.2558 201.871 48.8078C202.591 48.3598 203.447 48.1358 204.439 48.1358C205.287 48.1358 206.047 48.3278 206.719 48.7118C207.407 49.0798 207.951 49.6078 208.351 50.2958C208.751 50.9678 208.967 51.7678 208.999 52.6958C208.999 52.7438 208.999 52.8398 208.999 52.9838C209.015 53.1118 209.023 53.2238 209.023 53.3198H201.607C201.607 54.3438 201.855 55.1438 202.351 55.7198C202.863 56.2798 203.567 56.5598 204.463 56.5598C205.135 56.5598 205.703 56.3918 206.167 56.0558C206.647 55.7038 206.943 55.2398 207.055 54.6638H208.999C208.855 55.6878 208.391 56.5438 207.607 57.2318C206.823 57.9038 205.783 58.2398 204.487 58.2398ZM201.679 52.3358H207.007C206.991 52.1598 206.943 51.9278 206.863 51.6398C206.783 51.3518 206.647 51.0718 206.455 50.7998C206.279 50.5118 206.023 50.2718 205.687 50.0798C205.351 49.8878 204.919 49.7918 204.391 49.7918C203.735 49.7918 203.215 49.9358 202.831 50.2238C202.463 50.4958 202.183 50.8318 201.991 51.2318C201.815 51.6158 201.711 51.9838 201.679 52.3358ZM215.263 58.2398C213.823 58.2398 212.767 57.7758 212.095 56.8478C211.423 55.9038 211.087 54.7038 211.087 53.2478C211.087 51.7438 211.423 50.5278 212.095 49.5998C212.783 48.6558 213.839 48.1838 215.263 48.1838C215.903 48.1838 216.439 48.2878 216.871 48.4958C217.303 48.7038 217.647 48.9518 217.903 49.2398C218.175 49.5278 218.367 49.7918 218.479 50.0318C218.607 50.2718 218.679 50.4238 218.695 50.4878H218.743L218.767 44.4878H220.807V57.9998H219.079L218.767 56.0318H218.719C218.687 56.0958 218.599 56.2478 218.455 56.4878C218.327 56.7118 218.127 56.9598 217.855 57.2318C217.599 57.5038 217.255 57.7438 216.823 57.9518C216.391 58.1438 215.871 58.2398 215.263 58.2398ZM215.839 56.5118C216.767 56.5118 217.479 56.2158 217.975 55.6238C218.471 55.0158 218.719 54.2158 218.719 53.2238C218.719 52.2638 218.479 51.4878 217.999 50.8958C217.535 50.2878 216.847 49.9838 215.935 49.9838C215.231 49.9838 214.663 50.1438 214.231 50.4638C213.815 50.7678 213.511 51.1678 213.319 51.6638C213.143 52.1598 213.055 52.6798 213.055 53.2238C213.055 53.7838 213.135 54.3198 213.295 54.8318C213.471 55.3278 213.759 55.7358 214.159 56.0558C214.575 56.3598 215.135 56.5118 215.839 56.5118ZM223.498 57.9998V44.4878H225.49V56.2718H232.57V57.9998H223.498ZM237.508 58.2158C236.596 58.2158 235.86 58.0078 235.3 57.5918C234.74 57.1598 234.324 56.5678 234.052 55.8158C233.796 55.0478 233.668 54.1758 233.668 53.1998C233.668 51.7118 233.972 50.4958 234.58 49.5518C235.188 48.5918 236.164 48.1118 237.508 48.1118C238.228 48.1118 238.812 48.2398 239.26 48.4958C239.708 48.7518 240.052 49.0398 240.292 49.3598C240.548 49.6798 240.724 49.9598 240.82 50.1998H240.868V48.1838H242.908V57.9998H241.204L240.868 56.2478H240.82C240.724 56.4878 240.548 56.7678 240.292 57.0878C240.036 57.3918 239.684 57.6558 239.236 57.8798C238.788 58.1038 238.212 58.2158 237.508 58.2158ZM238.3 56.5118C239.244 56.5118 239.9 56.2078 240.268 55.5998C240.652 54.9918 240.844 54.1998 240.844 53.2238C240.844 52.1998 240.644 51.3918 240.244 50.7998C239.86 50.2078 239.212 49.9118 238.3 49.9118C237.628 49.9118 237.1 50.0638 236.716 50.3678C236.332 50.6558 236.052 51.0478 235.876 51.5438C235.716 52.0398 235.636 52.5918 235.636 53.1998C235.636 54.1438 235.836 54.9358 236.236 55.5758C236.636 56.1998 237.324 56.5118 238.3 56.5118ZM250.382 58.2398C249.774 58.2398 249.254 58.1438 248.822 57.9518C248.39 57.7438 248.038 57.5038 247.766 57.2318C247.494 56.9598 247.294 56.7118 247.166 56.4878C247.038 56.2478 246.958 56.0958 246.926 56.0318H246.878L246.566 57.9998H244.838V44.4878H246.878L246.902 50.4878H246.95C246.966 50.4238 247.03 50.2718 247.142 50.0318C247.27 49.7918 247.462 49.5278 247.718 49.2398C247.974 48.9518 248.318 48.7038 248.75 48.4958C249.182 48.2878 249.726 48.1838 250.382 48.1838C251.806 48.1838 252.854 48.6558 253.526 49.5998C254.214 50.5438 254.558 51.7598 254.558 53.2478C254.558 54.7198 254.214 55.9198 253.526 56.8478C252.854 57.7758 251.806 58.2398 250.382 58.2398ZM249.806 56.5118C250.51 56.5118 251.062 56.3598 251.462 56.0558C251.878 55.7358 252.166 55.3278 252.326 54.8318C252.502 54.3198 252.59 53.7838 252.59 53.2238C252.59 52.6798 252.494 52.1598 252.302 51.6638C252.126 51.1678 251.822 50.7678 251.39 50.4638C250.974 50.1438 250.414 49.9838 249.71 49.9838C248.782 49.9838 248.086 50.2878 247.622 50.8958C247.158 51.4878 246.926 52.2638 246.926 53.2238C246.926 54.2158 247.166 55.0158 247.646 55.6238C248.142 56.2158 248.862 56.5118 249.806 56.5118Z" fill="#9C1010"/>
</svg>
