<svg width="75" height="75" viewBox="0 0 75 75" fill="none" xmlns="http://www.w3.org/2000/svg">
<path d="M37.0883 71.4176C56.5336 71.4176 72.2972 55.6541 72.2972 36.2087C72.2972 16.7634 56.5336 0.999817 37.0883 0.999817C17.643 0.999817 1.87939 16.7634 1.87939 36.2087C1.87939 55.6541 17.643 71.4176 37.0883 71.4176Z" fill="#D9D9D9" fill-opacity="0.1" stroke="#1714A6" stroke-width="2"/>
<path d="M8.96619 55.6799L37.7487 3.04218L66.5312 55.6799H8.96619Z" stroke="#9C1010"/>
<path d="M5.89041 21.9518L37.158 70.9509L68.4255 21.9518H5.89041Z" stroke="black"/>
<path d="M35.7376 13.8978V10.5198H37.0156C37.1476 10.5198 37.2896 10.5298 37.4416 10.5498C37.5936 10.5658 37.7356 10.6038 37.8676 10.6638C37.9996 10.7198 38.1076 10.8078 38.1916 10.9278C38.2756 11.0478 38.3176 11.2098 38.3176 11.4138C38.3176 11.5418 38.2916 11.6618 38.2396 11.7738C38.1916 11.8818 38.1016 11.9698 37.9696 12.0378C37.8376 12.1058 37.6496 12.1438 37.4056 12.1518V12.1758C37.6896 12.1798 37.9076 12.2198 38.0596 12.2958C38.2156 12.3718 38.3236 12.4718 38.3836 12.5958C38.4436 12.7158 38.4736 12.8498 38.4736 12.9978C38.4736 13.2098 38.4276 13.3758 38.3356 13.4958C38.2436 13.6158 38.1256 13.7058 37.9816 13.7658C37.8376 13.8218 37.6836 13.8578 37.5196 13.8738C37.3596 13.8898 37.2076 13.8978 37.0636 13.8978H35.7376ZM36.2296 11.9598H36.9556C37.1196 11.9598 37.2656 11.9518 37.3936 11.9358C37.5256 11.9158 37.6296 11.8698 37.7056 11.7978C37.7816 11.7258 37.8196 11.6138 37.8196 11.4618C37.8196 11.2978 37.7796 11.1798 37.6996 11.1078C37.6196 11.0318 37.5136 10.9838 37.3816 10.9638C37.2496 10.9438 37.1096 10.9338 36.9616 10.9338H36.2296V11.9598ZM36.2296 13.4898H37.0216C37.1936 13.4898 37.3496 13.4798 37.4896 13.4598C37.6296 13.4358 37.7416 13.3858 37.8256 13.3098C37.9136 13.2298 37.9576 13.1058 37.9576 12.9378C37.9576 12.7658 37.9116 12.6378 37.8196 12.5538C37.7316 12.4698 37.6116 12.4158 37.4596 12.3918C37.3116 12.3638 37.1496 12.3498 36.9736 12.3498H36.2296V13.4898Z" fill="black"/>
<path d="M6.10996 38.6699V35.2919H7.38796C7.51996 35.2919 7.66196 35.3019 7.81396 35.3219C7.96596 35.3379 8.10796 35.3759 8.23996 35.4359C8.37196 35.4919 8.47996 35.5799 8.56396 35.6999C8.64796 35.8199 8.68996 35.9819 8.68996 36.1859C8.68996 36.3139 8.66396 36.4339 8.61196 36.5459C8.56396 36.6539 8.47396 36.7419 8.34196 36.8099C8.20996 36.8779 8.02196 36.9159 7.77796 36.9239V36.9479C8.06196 36.9519 8.27996 36.9919 8.43196 37.0679C8.58796 37.1439 8.69596 37.2439 8.75596 37.3679C8.81596 37.4879 8.84596 37.6219 8.84596 37.7699C8.84596 37.9819 8.79996 38.1479 8.70796 38.2679C8.61596 38.3879 8.49796 38.4779 8.35396 38.5379C8.20996 38.5939 8.05596 38.6299 7.89196 38.6459C7.73196 38.6619 7.57996 38.6699 7.43596 38.6699H6.10996ZM6.60196 36.7319H7.32796C7.49196 36.7319 7.63796 36.7239 7.76596 36.7079C7.89796 36.6879 8.00196 36.6419 8.07796 36.5699C8.15396 36.4979 8.19196 36.3859 8.19196 36.2339C8.19196 36.0699 8.15196 35.9519 8.07196 35.8799C7.99196 35.8039 7.88596 35.7559 7.75396 35.7359C7.62196 35.7159 7.48196 35.7059 7.33396 35.7059H6.60196V36.7319ZM6.60196 38.2619H7.39396C7.56596 38.2619 7.72196 38.2519 7.86196 38.2319C8.00196 38.2079 8.11396 38.1579 8.19796 38.0819C8.28596 38.0019 8.32996 37.8779 8.32996 37.7099C8.32996 37.5379 8.28396 37.4099 8.19196 37.3259C8.10396 37.2419 7.98396 37.1879 7.83196 37.1639C7.68396 37.1359 7.52196 37.1219 7.34596 37.1219H6.60196V38.2619Z" fill="black"/>
<path d="M34.6177 38.6699V35.2919H35.1157V36.9659L36.7537 35.2919H37.4017V35.3579L36.0157 36.6839L37.4737 38.6039V38.6699H36.8977L35.6497 37.0259L35.1157 37.5419V38.6699H34.6177ZM38.5082 38.6699H38.0162V35.2919H40.3862V35.7239H38.5082V36.6779H39.9662V37.0919H38.5082V38.6699Z" fill="black"/>
<path d="M33.3778 59.9029V56.5249H34.2418L35.1898 59.6809H35.2018L36.1318 56.5249H36.9958V59.9029H36.4858L36.5158 56.7589H36.5038L35.5558 59.9029H34.8178L33.8758 56.7589H33.8638L33.8878 59.9029H33.3778ZM37.7323 59.9029V56.5249H38.2303V59.4709H40.0003V59.9029H37.7323Z" fill="black"/>
<path d="M61.6881 38.6699V35.2919H62.5521L63.5001 38.4479H63.5121L64.4421 35.2919H65.3061V38.6699H64.7961L64.8261 35.5259H64.8141L63.8661 38.6699H63.1281L62.1861 35.5259H62.1741L62.1981 38.6699H61.6881ZM66.0426 38.6699V35.2919H66.5406V38.2379H68.3106V38.6699H66.0426Z" fill="black"/>
</svg>
